<?xml version="1.0" encoding="utf-8"?>
<!-- Generator: Adobe Illustrator 25.1.0, SVG Export Plug-In . SVG Version: 6.00 Build 0)  -->
<svg version="1.1" id="OBJECTS" xmlns="http://www.w3.org/2000/svg" xmlns:xlink="http://www.w3.org/1999/xlink" x="0px" y="0px"
	 viewBox="0 0 466 279.3" style="enable-background:new 0 0 466 279.3;" xml:space="preserve">
<style type="text/css">
	.st0{fill:#FFFFFF;}
	.st1{opacity:0.5;}
	.st2{fill:none;stroke:#D1D6DE;stroke-width:0.5;stroke-miterlimit:10;}
	.st3{fill:#6D6D6D;}
	.st4{fill:none;}
	.st5{fill:#8D9BAB;}
	.st6{font-family:'ArialMT';}
	.st7{font-size:7px;}
	.st8{font-size:6px;}
	.st9{fill:url(#SVGID_1_);}
	.st10{fill:url(#SVGID_2_);}
	.st11{fill:#6A7480;}
	.st12{opacity:0.7;}
	.st13{opacity:0.7;fill:#F9FBFC;enable-background:new    ;}
	.st14{clip-path:url(#SVGID_4_);}
	.st15{fill:url(#SVGID_5_);}
	.st16{fill:#F27777;}
	.st17{fill:url(#SVGID_6_);}
	.st18{fill:url(#SVGID_7_);}
	.st19{fill:url(#SVGID_8_);}
	.st20{fill:url(#SVGID_9_);}
	.st21{font-size:5px;}
	.st22{fill:url(#SVGID_10_);}
	.st23{fill:url(#SVGID_11_);}
</style>
<g>
	<g>
		<rect x="-0.1" y="-0.6" class="st0" width="466" height="279.2"/>
		<g class="st1">
			<rect x="12" y="65.3" class="st2" width="440.3" height="15.7"/>
			<rect x="12" y="81.1" class="st2" width="440.3" height="15.7"/>
			<rect x="12" y="96.9" class="st2" width="440.3" height="15.7"/>
			<rect x="12" y="112.8" class="st2" width="440.3" height="15.7"/>
			<rect x="12" y="128.6" class="st2" width="440.3" height="15.7"/>
			<rect x="12" y="144.4" class="st2" width="440.3" height="15.7"/>
			<rect x="12" y="160.2" class="st2" width="440.3" height="15.7"/>
			<rect x="12" y="176" class="st2" width="440.3" height="15.7"/>
			<rect x="12" y="191.8" class="st2" width="440.3" height="15.7"/>
			<rect x="12" y="207.6" class="st2" width="440.3" height="15.7"/>
			<rect x="12" y="223.4" class="st2" width="440.3" height="15.7"/>
			<rect x="12" y="239.2" class="st2" width="440.3" height="15.7"/>
			<rect x="12" y="255" class="st2" width="440.3" height="15.7"/>
		</g>
		<rect x="220.1" y="-222.2" transform="matrix(1.792292e-03 -1 1 1.792292e-03 221.6575 243.8209)" width="25.8" height="466.1"/>
		
			<rect x="220.9" y="-197.5" transform="matrix(1.791785e-03 -1 1 1.791785e-03 196.8793 268.4652)" class="st3" width="24.1" height="466.1"/>
	</g>
	<rect x="12.2" y="9.2" class="st4" width="119.1" height="10.5"/>
	<text transform="matrix(1 0 0 1 12.1662 14.1774)" class="st5 st6 st7">Project Schedule &gt; </text>
	<text transform="matrix(1 0 0 1 73.0662 14.1774)" class="st0 st6 st7">   Timeline</text>
	<rect x="12.8" y="32.7" class="st4" width="332.5" height="13"/>
	<text transform="matrix(1 0 0 1 12.7945 36.9812)" class="st0 st6 st8">These are the provisional stages that will be followed in this workshop, this process is open to modifications. </text>
	
		<linearGradient id="SVGID_1_" gradientUnits="userSpaceOnUse" x1="286.0671" y1="199.688" x2="307.4675" y2="178.2876" gradientTransform="matrix(1 0 0 -1 0 325.2756)">
		<stop  offset="0" style="stop-color:#FFC70C"/>
		<stop  offset="0.6186" style="stop-color:#FF9B00"/>
	</linearGradient>
	<path class="st9" d="M310.8,142.4h-25.7c-1.7,0-3-1.3-3-3v-4c0-1.7,1.3-3,3-3h25.7c1.7,0,3,1.3,3,3v4
		C313.8,141.1,312.4,142.4,310.8,142.4z"/>
	
		<linearGradient id="SVGID_2_" gradientUnits="userSpaceOnUse" x1="372.8296" y1="118.3034" x2="391.3227" y2="99.8102" gradientTransform="matrix(1 0 0 -1 0 325.2756)">
		<stop  offset="0" style="stop-color:#3AFFE1"/>
		<stop  offset="0.6186" style="stop-color:#00AFC7"/>
	</linearGradient>
	<path class="st10" d="M394.1,221.5h-24c-1.7,0-3-1.3-3-3V214c0-1.7,1.3-3,3-3h24c1.7,0,3,1.3,3,3v4.5
		C397.1,220.1,395.7,221.5,394.1,221.5z"/>
	<text transform="matrix(1 0 0 1 18.9998 75.5012)" class="st11 st6 st8">February</text>
	<text transform="matrix(1 0 0 1 91.6445 75.5012)" class="st11 st6 st8">18</text>
	<text transform="matrix(1 0 0 1 130.7162 75.5012)" class="st11 st6 st8">19</text>
	<text transform="matrix(1 0 0 1 170.641 75.5012)" class="st11 st6 st8">20</text>
	<text transform="matrix(1 0 0 1 211.337 75.5012)" class="st11 st6 st8">21</text>
	<text transform="matrix(1 0 0 1 250.7141 75.5012)" class="st11 st6 st8">22</text>
	<text transform="matrix(1 0 0 1 291.1976 75.5012)" class="st11 st6 st8">23</text>
	<text transform="matrix(1 0 0 1 337.219 75.5012)" class="st11 st6 st8">24</text>
	<text transform="matrix(1 0 0 1 381.0245 75.5012)" class="st11 st6 st8">25</text>
	<text transform="matrix(1 0 0 1 424.2261 75.5012)" class="st11 st6 st8">26</text>
	<text transform="matrix(1 0 0 1 18.9998 91.0012)" class="st11 st6 st8">Introduction</text>
	<text transform="matrix(1 0 0 1 18.9998 123.7806)" class="st11 st6 st8">Training Sessions </text>
	<text transform="matrix(1 0 0 1 18.9998 139.5306)" class="st11 st6 st8">First Proposal</text>
	<text transform="matrix(1 0 0 1 18.9998 155.0307)" class="st11 st6 st8">Recieve Feedback</text>
	<text transform="matrix(1 0 0 1 18.9998 171.0307)" class="st11 st6 st8">Improve Ideas</text>
	<text transform="matrix(1 0 0 1 18.9998 186.7807)" class="st11 st6 st8">FInal Revision</text>
	<text transform="matrix(1 0 0 1 18.9998 218.2357)" class="st11 st6 st8">Prepare Final P.</text>
	<text transform="matrix(1 0 0 1 18.9998 107.4176)" class="st11 st6 st8">First Session</text>
	<text transform="matrix(1 0 0 1 18.9998 233.7512)" class="st11 st6 st8">Final Presentation</text>
	<text transform="matrix(1 0 0 1 18.9998 248.7512)" class="st11 st6 st8">Collect Results</text>
	<g class="st12">
		<g>
			<rect id="XMLID_4_" x="403.1" y="64.3" class="st13" width="15" height="206.7"/>
		</g>
		<g>
			<defs>
				<rect id="SVGID_3_" x="403.1" y="64.3" width="15" height="206.7"/>
			</defs>
			<clipPath id="SVGID_4_">
				<use xlink:href="#SVGID_3_"  style="overflow:visible;"/>
			</clipPath>
			<g class="st14">
				
					<image style="overflow:visible;enable-background:new    ;" width="346" height="1296" xlink:href="7FF391BF5486D32C.png"  transform="matrix(0.2386 0 0 0.2081 357.5868 34.2786)">
				</image>
			</g>
		</g>
	</g>
	<line class="st2" x1="72.7" y1="65.6" x2="72.7" y2="270.4"/>
	<line class="st2" x1="115.9" y1="66.1" x2="115.9" y2="270.5"/>
	<line class="st2" x1="156" y1="65.5" x2="156" y2="271.1"/>
	<line class="st2" x1="195.7" y1="65.9" x2="195.7" y2="271.2"/>
	<line class="st2" x1="238.9" y1="65.3" x2="238.9" y2="270.9"/>
	<line class="st2" x1="279" y1="65" x2="279" y2="270.8"/>
	<line class="st2" x1="317.7" y1="65.4" x2="317.7" y2="271.1"/>
	<line class="st2" x1="360.9" y1="65.9" x2="360.9" y2="271"/>
	
		<linearGradient id="SVGID_5_" gradientUnits="userSpaceOnUse" x1="286.4961" y1="184.2041" x2="307.8965" y2="162.8037" gradientTransform="matrix(1 0 0 -1 0 325.2756)">
		<stop  offset="0" style="stop-color:#FFC70C"/>
		<stop  offset="0.6186" style="stop-color:#FF9B00"/>
	</linearGradient>
	<path class="st15" d="M311.2,157.9h-25.7c-1.7,0-3-1.3-3-3v-4c0-1.7,1.3-3,3-3h25.7c1.7,0,3,1.3,3,3v4
		C314.2,156.6,312.8,157.9,311.2,157.9z"/>
	<path class="st16" d="M107.3,94.3h-24c-1.7,0-3-1.3-3-3v-4.5c0-1.7,1.3-3,3-3h24c1.7,0,3,1.3,3,3v4.5C110.3,93,109,94.3,107.3,94.3
		z"/>
	<path class="st16" d="M107.5,109.6h-24c-1.7,0-3-1.3-3-3v-4.5c0-1.7,1.3-3,3-3h24c1.7,0,3,1.3,3,3v4.5
		C110.5,108.2,109.1,109.6,107.5,109.6z"/>
	<linearGradient id="SVGID_6_" gradientUnits="userSpaceOnUse" x1="367.0254" y1="184.5977" x2="397.0254" y2="184.5977">
		<stop  offset="0" style="stop-color:#ADD136"/>
		<stop  offset="0.6186" style="stop-color:#60BB46"/>
	</linearGradient>
	<path class="st17" d="M394,189.8h-24c-1.7,0-3-1.3-3-3v-4.5c0-1.7,1.3-3,3-3h24c1.7,0,3,1.3,3,3v4.5
		C397,188.5,395.7,189.8,394,189.8z"/>
	<text transform="matrix(1 0 0 1 19.1805 201.5817)" class="st11 st6 st8">Improve Ideas</text>
	<linearGradient id="SVGID_7_" gradientUnits="userSpaceOnUse" x1="367.4197" y1="200.1273" x2="397.4197" y2="200.1273">
		<stop  offset="0" style="stop-color:#ADD136"/>
		<stop  offset="0.6186" style="stop-color:#60BB46"/>
	</linearGradient>
	<path class="st18" d="M394.4,205.4h-24c-1.7,0-3-1.3-3-3v-4.5c0-1.7,1.3-3,3-3h24c1.7,0,3,1.3,3,3v4.5
		C397.4,204,396.1,205.4,394.4,205.4z"/>
	
		<linearGradient id="SVGID_8_" gradientUnits="userSpaceOnUse" x1="413.826" y1="108.9794" x2="440.4137" y2="82.3917" gradientTransform="matrix(1 0 0 -1 0 325.2756)">
		<stop  offset="0" style="stop-color:#FFC70C"/>
		<stop  offset="0.6186" style="stop-color:#FF9B00"/>
	</linearGradient>
	<path class="st19" d="M447.7,234.9h-38.3c-1,0-1.9-1-1.9-2.3v-3.1c0-1.3,0.8-2.3,1.9-2.3h38.3c1,0,1.9,1,1.9,2.3v3.1
		C449.6,233.9,448.7,234.9,447.7,234.9z"/>
	
		<linearGradient id="SVGID_9_" gradientUnits="userSpaceOnUse" x1="414.3387" y1="93.2292" x2="440.9264" y2="66.6415" gradientTransform="matrix(1 0 0 -1 0 325.2756)">
		<stop  offset="0" style="stop-color:#FFC70C"/>
		<stop  offset="0.6186" style="stop-color:#FF9B00"/>
	</linearGradient>
	<path class="st20" d="M448.2,250.7h-38.3c-1,0-1.9-1-1.9-2.3v-3.1c0-1.3,0.8-2.3,1.9-2.3h38.3c1,0,1.9,1,1.9,2.3v3.1
		C450.1,249.6,449.3,250.7,448.2,250.7z"/>
	<text transform="matrix(1 0 0 1 83.6243 106.069)" class="st0 st6 st21">Session 1</text>
	
		<linearGradient id="SVGID_10_" gradientUnits="userSpaceOnUse" x1="153.2525" y1="243.6436" x2="232.7456" y2="164.1505" gradientTransform="matrix(1 0 0 -1 0 325.2756)">
		<stop  offset="0" style="stop-color:#3AFFE1"/>
		<stop  offset="0.6186" style="stop-color:#00AFC7"/>
	</linearGradient>
	<path class="st22" d="M266,126.6H120c-1.7,0-3-1.3-3-3v-4.5c0-1.7,1.3-3,3-3h146c1.7,0,3,1.3,3,3v4.5
		C269,125.3,267.6,126.6,266,126.6z"/>
	<text transform="matrix(1 0 0 1 285.3449 139.1486)" class="st0 st6 st21"> Session 2  </text>
	<text transform="matrix(1 0 0 1 369.0769 186.715)" class="st0 st6 st21"> Session 3  </text>
	<text transform="matrix(1 0 0 1 413.7272 232.8179)" class="st0 st6 st21">Final Session</text>
	<text transform="matrix(1 0 0 1 19.7092 264.8725)" class="st11 st6 st8">Closure</text>
	
		<linearGradient id="SVGID_11_" gradientUnits="userSpaceOnUse" x1="418.2258" y1="74.4646" x2="440.32" y2="52.3704" gradientTransform="matrix(1 0 0 -1 0 325.2756)">
		<stop  offset="0" style="stop-color:#3AFFE1"/>
		<stop  offset="0.6186" style="stop-color:#00AFC7"/>
	</linearGradient>
	<path class="st23" d="M445.2,265.7h-31.8c-2.2,0-4-1-4-2.2v-3.3c0-1.2,1.8-2.2,4-2.2h31.8c2.2,0,4,1,4,2.2v3.3
		C449.2,264.7,447.4,265.7,445.2,265.7z"/>
	<path class="st16" d="M347.2,174.3h-61c-1.7,0-3-1.3-3-3v-4.5c0-1.7,1.3-3,3-3h61c1.7,0,3,1.3,3,3v4.5
		C350.2,172.9,348.9,174.3,347.2,174.3z"/>
</g>
</svg>
