<?xml version="1.0" encoding="utf-8"?>
<!-- Generator: Adobe Illustrator 25.0.1, SVG Export Plug-In . SVG Version: 6.00 Build 0)  -->
<svg version="1.1" id="Capa_1" xmlns="http://www.w3.org/2000/svg" xmlns:xlink="http://www.w3.org/1999/xlink" x="0px" y="0px"
	 viewBox="0 0 512 512" style="enable-background:new 0 0 512 512;" xml:space="preserve">
<style type="text/css">
	.st0{fill:#F49AC1;}
</style>
<g>
	<path class="st0" d="M111.5,407.8H99.2H88.8H76.5c-28.2,0-51.1,22.9-51.1,51.1v45.6c0,4.1,3.4,7.5,7.5,7.5s7.5-3.4,7.5-7.5v-45.6
		c0-19.9,16.2-36.1,36.1-36.1h2.3l-11.6,39.3c-0.8,2.6-0.1,5.4,1.8,7.4l19.6,20.1c1.4,1.4,3.3,2.3,5.4,2.3s4-0.8,5.4-2.3l19.6-20.1
		c1.9-1.9,2.6-4.8,1.8-7.4l-11.6-39.3h2.3c19.9,0,36.1,16.2,36.1,36.1v45.6c0,4.1,3.4,7.5,7.5,7.5s7.5-3.4,7.5-7.5v-45.6
		C162.7,430.7,139.7,407.8,111.5,407.8z M94,473.6l-11.2-11.4l11.2-38l11.2,38L94,473.6z"/>
	<path class="st0" d="M94,403.8c31.6,0,57.3-25.7,57.3-57.3v-14.6v-9.4c0-1,0-2-0.1-3c0-0.2,0-0.5-0.1-0.7c-0.1-0.8-0.1-1.6-0.2-2.4
		c0-0.2-0.1-0.5-0.1-0.7c-0.1-0.8-0.2-1.5-0.3-2.3c0-0.2-0.1-0.5-0.1-0.7c-0.1-0.8-0.3-1.5-0.4-2.3c-0.1-0.2-0.1-0.5-0.2-0.7
		c-0.2-0.7-0.3-1.5-0.5-2.2c-0.1-0.3-0.1-0.5-0.2-0.8c-0.2-0.7-0.4-1.4-0.6-2c-0.1-0.3-0.2-0.6-0.3-0.9c-0.2-0.6-0.4-1.3-0.7-1.9
		c-0.1-0.3-0.3-0.7-0.4-1c-0.2-0.6-0.5-1.1-0.7-1.7c-0.2-0.4-0.3-0.7-0.5-1.1c-0.2-0.5-0.5-1-0.7-1.5c-0.2-0.4-0.4-0.8-0.6-1.2
		c-0.2-0.4-0.4-0.8-0.7-1.2c-0.3-0.5-0.5-0.9-0.8-1.4c-0.2-0.3-0.4-0.6-0.5-0.8c-1.7-2.8-3.7-5.4-5.9-7.8c-0.1-0.1-0.2-0.2-0.3-0.3
		c-0.5-0.5-0.9-1-1.4-1.5c-0.2-0.2-0.4-0.4-0.6-0.6c-0.4-0.4-0.9-0.9-1.4-1.3c-0.3-0.2-0.5-0.5-0.8-0.7c-0.2-0.2-0.4-0.4-0.6-0.6
		c-0.1-0.1-0.2-0.1-0.2-0.2c-0.3-0.2-0.5-0.4-0.8-0.6c-0.1,0-0.1-0.1-0.2-0.1c-0.6-0.5-1.2-1-1.9-1.5c-0.1-0.1-0.3-0.2-0.4-0.3
		c-0.6-0.4-1.1-0.8-1.7-1.2c-0.2-0.1-0.4-0.3-0.6-0.4c-0.5-0.3-1-0.6-1.5-0.9c-0.3-0.2-0.6-0.4-0.9-0.6c-0.4-0.2-0.8-0.5-1.2-0.7
		c-0.4-0.2-0.8-0.5-1.2-0.7c-0.2-0.1-0.5-0.3-0.7-0.4c-3.5-1.8-7.2-3.3-11.1-4.3c0,0-0.1,0-0.1,0c-0.7-0.2-1.4-0.4-2.1-0.5
		c-0.2,0-0.3-0.1-0.5-0.1c-0.6-0.1-1.3-0.3-1.9-0.4c-0.3,0-0.5-0.1-0.8-0.1c-0.6-0.1-1.2-0.2-1.7-0.3c-0.4,0-0.7-0.1-1.1-0.1
		c-0.5-0.1-1-0.1-1.5-0.2c-0.5,0-1-0.1-1.5-0.1c-0.4,0-0.8-0.1-1.2-0.1c-0.9,0-1.8-0.1-2.7-0.1c-9.1,0-18.2,2.2-26.2,6.3
		c-3.7,1.9-5.1,6.4-3.2,10.1c1.9,3.7,6.4,5.1,10.1,3.2c6-3.1,12.5-4.7,19.3-4.7c0.7,0,1.3,0,2,0.1c0.3,0,0.6,0,0.9,0.1
		c0.4,0,0.7,0,1.1,0.1c0.4,0,0.7,0.1,1.1,0.1c0.3,0,0.5,0.1,0.8,0.1c0.4,0.1,0.9,0.1,1.3,0.2c0.2,0,0.3,0.1,0.5,0.1
		c0.5,0.1,1,0.2,1.5,0.3c0.1,0,0.2,0,0.2,0.1c3.5,0.8,6.8,2,10,3.7c0.1,0.1,0.2,0.1,0.3,0.2c0.4,0.2,0.8,0.4,1.2,0.6
		c0.2,0.1,0.4,0.2,0.6,0.4c0.3,0.2,0.6,0.4,0.9,0.6c0.3,0.2,0.5,0.3,0.8,0.5c0.2,0.2,0.5,0.3,0.7,0.5c0.3,0.2,0.7,0.5,1,0.7
		c0.2,0.1,0.4,0.3,0.5,0.4c0.4,0.3,0.8,0.6,1.2,0.9c0.1,0.1,0.2,0.2,0.3,0.2c0.3,0.3,0.6,0.5,0.9,0.8c0.3,0.3,0.6,0.6,0.9,0.8
		c0.2,0.2,0.5,0.5,0.7,0.7c0.3,0.3,0.5,0.5,0.8,0.8c0.2,0.3,0.5,0.5,0.7,0.8c0.2,0.3,0.5,0.5,0.7,0.8c0.2,0.3,0.5,0.6,0.7,0.8
		c0.2,0.3,0.4,0.5,0.6,0.8c0.2,0.3,0.5,0.6,0.7,0.9c0.4,0.5,0.8,1.1,1.2,1.6c0.2,0.2,0.3,0.5,0.5,0.7c0.2,0.4,0.5,0.8,0.7,1.2
		c0.1,0.2,0.3,0.5,0.4,0.7c0.2,0.4,0.5,0.8,0.7,1.2c0.1,0.2,0.2,0.4,0.3,0.7c0.2,0.4,0.4,0.9,0.7,1.3c0.1,0.2,0.2,0.4,0.3,0.6
		c0.2,0.5,0.4,0.9,0.6,1.4c0.1,0.2,0.2,0.4,0.2,0.6c0.2,0.5,0.4,1,0.6,1.5c0.1,0.2,0.1,0.4,0.2,0.5c0.2,0.5,0.3,1.1,0.5,1.6
		c0,0.2,0.1,0.3,0.1,0.5c0.1,0.6,0.3,1.1,0.4,1.7c0,0.2,0.1,0.3,0.1,0.5c0.1,0.6,0.2,1.1,0.3,1.7c0,0.2,0.1,0.3,0.1,0.5
		c0.1,0.6,0.2,1.1,0.2,1.7c0,0.2,0,0.3,0.1,0.5c0.1,0.6,0.1,1.2,0.1,1.7c0,0.2,0,0.3,0,0.5c0,0.7,0.1,1.5,0.1,2.3v0
		c-7.2-2.6-13.4-7.5-17.7-14.1c-1.3-2-3.4-3.2-5.7-3.4c-2.3-0.2-4.6,0.7-6.2,2.5c-9.8,10.9-23.9,17.2-38.6,17.2
		c-5.7,0-11.2-0.9-16.5-2.7c0-0.1,0-0.2,0-0.3c0-0.7,0-1.4,0.1-2.1c0,0,0-0.1,0-0.1c0.1-0.8,0.1-1.6,0.2-2.4c0,0,0-0.1,0-0.1
		c0.7-5,2.2-9.8,4.6-14.2c1.9-3.7,0.6-8.2-3.1-10.1c-3.7-1.9-8.2-0.6-10.1,3.1c-1.6,2.9-2.9,6-3.9,9.2c-0.1,0.1-0.1,0.3-0.2,0.4
		c-1.1,3.3-1.8,6.8-2.2,10.2c0,0,0,0,0,0c-0.1,1.1-0.2,2.2-0.3,3.3c0,0.2,0,0.4,0,0.5c-0.1,1.1-0.1,2.1-0.1,3.2v4.6v19.4
		C36.7,378.1,62.4,403.8,94,403.8z M51.7,337.6c5.4,1.4,10.9,2.1,16.5,2.1c15.9,0,31.3-5.7,43.4-16c6.7,7.1,15.2,12.2,24.8,14.5v8.3
		c0,23.3-19,42.3-42.3,42.3s-42.3-19-42.3-42.3C51.7,346.5,51.7,337.6,51.7,337.6z"/>
	<path class="st0" d="M194.8,246.8c4.1,0,7.5-3.4,7.5-7.5v-45.6c0-19.9,16.2-36.1,36.1-36.1h2.3l-11.6,39.3
		c-0.8,2.6-0.1,5.4,1.8,7.4l19.6,20.1c1.4,1.4,3.3,2.3,5.4,2.3s4-0.8,5.4-2.3l19.6-20.1c1.9-1.9,2.6-4.8,1.8-7.4l-11.6-39.3h2.3
		c19.9,0,36.1,16.2,36.1,36.1v45.6c0,4.1,3.4,7.5,7.5,7.5s7.5-3.4,7.5-7.5v-45.6c0-28.2-22.9-51.1-51.1-51.1h-12.3h-10.4h-12.3
		c-28.2,0-51.1,22.9-51.1,51.1v45.6C187.3,243.4,190.7,246.8,194.8,246.8z M256,208.4l-11.2-11.4l11.2-38l11.2,38L256,208.4z"/>
	<path class="st0" d="M256,138.6c31.6,0,57.3-25.7,57.3-57.3V66.7v-9.4c0-1,0-2-0.1-3c0-0.2,0-0.5-0.1-0.7c-0.1-0.8-0.1-1.6-0.2-2.4
		c0-0.2-0.1-0.5-0.1-0.7c-0.1-0.8-0.2-1.5-0.3-2.3c0-0.2-0.1-0.5-0.1-0.7c-0.1-0.8-0.3-1.5-0.4-2.3c-0.1-0.2-0.1-0.5-0.2-0.7
		c-0.2-0.7-0.3-1.5-0.5-2.2c-0.1-0.3-0.1-0.5-0.2-0.8c-0.2-0.7-0.4-1.4-0.6-2c-0.1-0.3-0.2-0.6-0.3-0.9c-0.2-0.6-0.4-1.3-0.7-1.9
		c-0.1-0.3-0.3-0.7-0.4-1c-0.2-0.6-0.5-1.1-0.7-1.7c-0.2-0.4-0.3-0.7-0.5-1.1c-0.2-0.5-0.5-1-0.7-1.5c-0.2-0.4-0.4-0.8-0.6-1.2
		c-0.2-0.4-0.4-0.8-0.7-1.2c-0.3-0.5-0.5-0.9-0.8-1.4c-0.2-0.3-0.3-0.6-0.5-0.8c-1.7-2.8-3.7-5.4-5.9-7.9c-0.1-0.1-0.2-0.2-0.3-0.3
		c-0.5-0.5-1-1-1.5-1.5c-0.2-0.2-0.4-0.4-0.6-0.6c-0.5-0.4-0.9-0.9-1.4-1.3c-0.3-0.2-0.5-0.5-0.8-0.7c-0.2-0.2-0.4-0.4-0.6-0.6
		c-0.1-0.1-0.2-0.1-0.2-0.2c-0.3-0.2-0.5-0.4-0.8-0.6c-0.1,0-0.1-0.1-0.2-0.1c-0.6-0.5-1.2-1-1.9-1.5c-0.1-0.1-0.3-0.2-0.4-0.3
		c-0.6-0.4-1.1-0.8-1.7-1.2c-0.2-0.1-0.4-0.3-0.6-0.4c-0.5-0.3-1-0.6-1.5-0.9c-0.3-0.2-0.6-0.4-0.9-0.6c-0.4-0.2-0.8-0.5-1.2-0.7
		c-0.4-0.2-0.8-0.5-1.2-0.7c-0.3-0.1-0.5-0.3-0.8-0.4c-3.5-1.8-7.2-3.3-11-4.3c0,0-0.1,0-0.1,0c-0.7-0.2-1.4-0.4-2.1-0.5
		c-0.2,0-0.3-0.1-0.5-0.1c-0.6-0.1-1.3-0.3-1.9-0.4c-0.3,0-0.5-0.1-0.8-0.1c-0.6-0.1-1.2-0.2-1.7-0.3c-0.4-0.1-0.7-0.1-1.1-0.1
		c-0.5-0.1-1-0.1-1.5-0.2c-0.5,0-1-0.1-1.5-0.1c-0.4,0-0.8-0.1-1.2-0.1C257.8,0,256.9,0,256,0c-9.1,0-18.2,2.2-26.2,6.3
		c-3.7,1.9-5.1,6.4-3.2,10.1c1.9,3.7,6.4,5.1,10.1,3.2c6-3.1,12.5-4.7,19.3-4.7c0.7,0,1.3,0,2,0.1c0.3,0,0.6,0,0.9,0.1
		c0.4,0,0.7,0.1,1.1,0.1c0.4,0,0.7,0.1,1.1,0.1c0.3,0,0.5,0.1,0.8,0.1c0.4,0.1,0.9,0.1,1.3,0.2c0.2,0,0.3,0.1,0.5,0.1
		c0.5,0.1,1,0.2,1.5,0.3c0.1,0,0.2,0,0.2,0.1c3.5,0.8,6.8,2,10,3.6c0.1,0.1,0.2,0.1,0.4,0.2c0.4,0.2,0.8,0.4,1.1,0.6
		c0.2,0.1,0.4,0.2,0.6,0.4c0.3,0.2,0.6,0.4,0.9,0.6c0.3,0.2,0.6,0.4,0.8,0.5c0.2,0.2,0.5,0.3,0.7,0.5c0.3,0.2,0.7,0.5,1,0.7
		c0.2,0.1,0.3,0.2,0.5,0.4c0.4,0.3,0.8,0.6,1.2,1c0.1,0.1,0.2,0.1,0.3,0.2c0.3,0.3,0.7,0.6,1,0.8c0.3,0.3,0.6,0.5,0.9,0.8
		c0.3,0.2,0.5,0.5,0.8,0.7c0.3,0.3,0.5,0.5,0.8,0.8c0.3,0.3,0.5,0.5,0.8,0.8c0.2,0.2,0.5,0.5,0.7,0.8c0.3,0.3,0.5,0.6,0.8,0.9
		c0.2,0.3,0.4,0.5,0.6,0.8c0.2,0.3,0.5,0.6,0.7,0.9c0.3,0.4,0.6,0.9,1,1.3c0.2,0.3,0.5,0.7,0.7,1c0.2,0.4,0.5,0.8,0.7,1.1
		c0.1,0.2,0.3,0.5,0.4,0.7c0.2,0.4,0.5,0.8,0.7,1.2c0.1,0.2,0.2,0.4,0.3,0.7c0.2,0.4,0.4,0.9,0.6,1.3c0.1,0.2,0.2,0.4,0.3,0.6
		c0.2,0.5,0.4,0.9,0.6,1.4c0.1,0.2,0.2,0.4,0.2,0.6c0.2,0.5,0.4,1,0.6,1.5c0.1,0.2,0.1,0.4,0.2,0.5c0.2,0.5,0.3,1.1,0.5,1.6
		c0,0.2,0.1,0.3,0.1,0.5c0.1,0.6,0.3,1.1,0.4,1.7c0,0.2,0.1,0.3,0.1,0.5c0.1,0.6,0.2,1.1,0.3,1.7c0,0.2,0.1,0.3,0.1,0.5
		c0.1,0.6,0.2,1.1,0.2,1.7c0,0.2,0,0.3,0.1,0.5c0.1,0.6,0.1,1.2,0.1,1.7c0,0.2,0,0.3,0,0.5c0,0.7,0.1,1.5,0.1,2.3v0
		c-7.2-2.6-13.4-7.5-17.7-14.1c-1.3-2-3.4-3.2-5.7-3.4c-2.3-0.2-4.6,0.7-6.2,2.5c-9.8,10.9-23.9,17.2-38.6,17.2
		c-5.6,0-11.2-0.9-16.5-2.7c0-0.1,0-0.2,0-0.3c0-0.7,0-1.4,0.1-2.1c0,0,0-0.1,0-0.1c0.1-0.8,0.1-1.6,0.2-2.4c0-0.1,0-0.1,0-0.2
		c0.7-5,2.2-9.8,4.6-14.2c1.9-3.7,0.6-8.2-3.1-10.1c-3.7-1.9-8.2-0.6-10.1,3.1c-1.6,3-2.9,6-3.9,9.2c-0.1,0.1-0.1,0.3-0.2,0.4
		c-1.1,3.3-1.8,6.8-2.2,10.2c0,0,0,0,0,0.1c-0.1,1.1-0.2,2.2-0.3,3.2c0,0.2,0,0.4,0,0.5c-0.1,1.1-0.1,2.1-0.1,3.2v4.6v19.4
		C198.7,112.9,224.4,138.6,256,138.6z M213.7,72.4c5.4,1.4,10.9,2.1,16.5,2.1c15.9,0,31.3-5.7,43.4-16c6.7,7.1,15.2,12.2,24.8,14.5
		v8.3c0,23.3-19,42.3-42.3,42.3s-42.3-19-42.3-42.3L213.7,72.4L213.7,72.4z"/>
	<path class="st0" d="M368.8,260.5c1.5,1.9,3.7,3,6,3c1.6,0,3.2-0.5,4.5-1.5c3.3-2.5,3.9-7.2,1.4-10.5c-9.2-12.1-20-22.8-32.2-31.7
		c-3.3-2.5-8-1.7-10.5,1.6c-2.5,3.3-1.7,8,1.6,10.5C350.7,240,360.5,249.6,368.8,260.5z"/>
	<path class="st0" d="M323.4,470.3c-20.6,11.2-43.9,17.1-67.4,17.1c-23.7,0-47.2-6-67.8-17.3c-3.6-2-8.2-0.7-10.2,3s-0.7,8.2,3,10.2
		c22.9,12.5,48.8,19.1,75,19.1c26,0,51.8-6.5,74.6-18.9c3.6-2,5-6.5,3-10.2C331.6,469.7,327.1,468.3,323.4,470.3z"/>
	<path class="st0" d="M163.5,219.8c-12.1,8.9-22.9,19.5-32,31.4c-2.5,3.3-1.9,8,1.4,10.5c1.4,1,3,1.5,4.5,1.5c2.3,0,4.5-1,6-3
		c8.2-10.8,18-20.4,28.9-28.4c3.3-2.5,4.1-7.1,1.6-10.5C171.5,218,166.8,217.3,163.5,219.8z"/>
	<path class="st0" d="M435.5,407.8h-12.3h-10.4h-12.3c-28.2,0-51.1,22.9-51.1,51.1v45.6c0,4.1,3.4,7.5,7.5,7.5s7.5-3.4,7.5-7.5
		v-45.6c0-19.9,16.2-36.1,36.1-36.1h2.3l-11.6,39.3c-0.8,2.6-0.1,5.4,1.8,7.4l19.6,20.1c1.4,1.4,3.3,2.3,5.4,2.3s4-0.8,5.4-2.3
		l19.6-20.1c1.9-1.9,2.6-4.8,1.8-7.4l-11.6-39.3h2.3c19.9,0,36.1,16.2,36.1,36.1v45.6c0,4.1,3.4,7.5,7.5,7.5s7.5-3.4,7.5-7.5v-45.6
		C486.7,430.7,463.7,407.8,435.5,407.8z M418,473.6l-11.2-11.4l11.2-38l11.2,38L418,473.6z"/>
	<path class="st0" d="M398.7,284.9c6-3.1,12.5-4.7,19.3-4.7c0.7,0,1.3,0,2,0.1c0.3,0,0.6,0,0.9,0.1c0.4,0,0.7,0,1.1,0.1
		c0.4,0,0.7,0.1,1.1,0.1c0.3,0,0.5,0.1,0.8,0.1c0.4,0.1,0.9,0.1,1.3,0.2c0.2,0,0.3,0.1,0.5,0.1c0.5,0.1,1,0.2,1.5,0.3
		c0.1,0,0.2,0,0.2,0.1c3.5,0.8,6.8,2,10,3.7c0.1,0.1,0.2,0.1,0.3,0.2c0.4,0.2,0.8,0.4,1.2,0.6c0.2,0.1,0.4,0.2,0.6,0.4
		c0.3,0.2,0.6,0.4,0.9,0.6c0.3,0.2,0.5,0.3,0.8,0.5c0.2,0.2,0.5,0.3,0.7,0.5c0.3,0.2,0.7,0.5,1,0.7c0.2,0.1,0.4,0.3,0.5,0.4
		c0.4,0.3,0.8,0.6,1.2,0.9c0.1,0.1,0.2,0.2,0.3,0.2c0.3,0.3,0.6,0.6,1,0.8c0.3,0.3,0.6,0.5,0.9,0.8c0.3,0.2,0.5,0.5,0.8,0.7
		c0.3,0.2,0.5,0.5,0.7,0.8c0.3,0.3,0.5,0.5,0.8,0.8c0.2,0.2,0.4,0.5,0.7,0.7c0.3,0.3,0.5,0.6,0.8,0.9c0.2,0.2,0.4,0.5,0.6,0.7
		c0.2,0.3,0.5,0.6,0.7,0.9c0.3,0.4,0.5,0.7,0.8,1.1c0.3,0.4,0.6,0.9,0.9,1.3c0.2,0.4,0.5,0.7,0.7,1.1c0.1,0.2,0.3,0.5,0.4,0.7
		c0.2,0.4,0.5,0.8,0.7,1.2c0.1,0.2,0.2,0.5,0.3,0.7c0.2,0.4,0.4,0.9,0.6,1.3c0.1,0.2,0.2,0.4,0.3,0.6c0.2,0.5,0.4,0.9,0.6,1.4
		c0.1,0.2,0.2,0.4,0.2,0.6c0.2,0.5,0.4,1,0.6,1.5c0.1,0.2,0.1,0.4,0.2,0.5c0.2,0.5,0.3,1.1,0.5,1.6c0,0.2,0.1,0.3,0.1,0.5
		c0.2,0.6,0.3,1.1,0.4,1.7c0,0.2,0.1,0.3,0.1,0.5c0.1,0.6,0.2,1.1,0.3,1.7c0,0.2,0.1,0.3,0.1,0.5c0.1,0.6,0.2,1.1,0.2,1.7
		c0,0.2,0,0.3,0.1,0.5c0.1,0.6,0.1,1.2,0.1,1.7c0,0.2,0,0.3,0,0.5c0,0.7,0.1,1.5,0.1,2.3v0c-7.2-2.6-13.4-7.5-17.7-14.1
		c-1.3-2-3.4-3.2-5.7-3.4c-2.3-0.2-4.6,0.7-6.2,2.5c-9.8,10.9-23.9,17.2-38.6,17.2c-5.6,0-11.2-0.9-16.5-2.7c0-0.1,0-0.2,0-0.3
		c0-0.7,0-1.4,0.1-2.1c0,0,0-0.1,0-0.1c0.1-0.8,0.1-1.6,0.2-2.4c0,0,0-0.1,0-0.1c0.7-5,2.2-9.8,4.6-14.2c1.9-3.7,0.6-8.2-3.1-10.1
		c-3.7-1.9-8.2-0.6-10.1,3.1c-1.6,2.9-2.9,6-3.9,9.2c-0.1,0.1-0.1,0.3-0.2,0.4c-1.1,3.3-1.8,6.8-2.2,10.2c0,0,0,0,0,0
		c-0.1,1.1-0.2,2.2-0.3,3.2c0,0.2,0,0.4,0,0.5c-0.1,1.1-0.1,2.1-0.1,3.2v4.6v19.4c0,31.6,25.7,57.3,57.3,57.3s57.3-25.7,57.3-57.3
		v-14.6v-9.4c0-1,0-2-0.1-3c0-0.2,0-0.5-0.1-0.7c-0.1-0.8-0.1-1.6-0.2-2.3c0-0.2-0.1-0.5-0.1-0.7c-0.1-0.8-0.2-1.5-0.3-2.3
		c0-0.2-0.1-0.5-0.1-0.7c-0.1-0.7-0.3-1.5-0.4-2.2c-0.1-0.3-0.1-0.5-0.2-0.8c-0.2-0.7-0.3-1.4-0.5-2.1c-0.1-0.3-0.2-0.5-0.2-0.8
		c-0.2-0.7-0.4-1.3-0.6-2c-0.1-0.3-0.2-0.6-0.3-0.9c-0.2-0.6-0.4-1.2-0.7-1.8c-0.1-0.3-0.3-0.7-0.4-1c-0.2-0.6-0.5-1.1-0.7-1.6
		c-0.2-0.4-0.3-0.8-0.5-1.1c-0.2-0.5-0.5-0.9-0.7-1.4c-0.2-0.4-0.4-0.9-0.7-1.3c-0.2-0.4-0.4-0.8-0.6-1.1c-0.3-0.5-0.5-1-0.8-1.4
		c-0.2-0.3-0.3-0.5-0.5-0.8c-1.8-2.8-3.7-5.5-6-7.9c-0.1-0.1-0.2-0.2-0.3-0.3c-0.5-0.5-1-1-1.5-1.5c-0.2-0.2-0.4-0.4-0.6-0.6
		c-0.5-0.4-0.9-0.9-1.4-1.3c-0.3-0.2-0.5-0.5-0.8-0.7c-0.2-0.2-0.4-0.4-0.7-0.6c-0.1-0.1-0.1-0.1-0.2-0.2c-0.3-0.2-0.5-0.4-0.8-0.6
		c-0.1,0-0.1-0.1-0.2-0.1c-0.6-0.5-1.2-1-1.9-1.5c-0.1-0.1-0.3-0.2-0.4-0.3c-0.6-0.4-1.1-0.8-1.7-1.2c-0.2-0.1-0.4-0.3-0.6-0.4
		c-0.5-0.3-1-0.6-1.5-0.9c-0.3-0.2-0.6-0.4-0.9-0.6c-0.4-0.2-0.8-0.5-1.2-0.7c-0.4-0.2-0.8-0.5-1.2-0.7c-0.2-0.1-0.5-0.3-0.7-0.4
		c-3.5-1.8-7.2-3.3-11.1-4.3c0,0-0.1,0-0.1,0c-0.7-0.2-1.4-0.4-2.1-0.5c-0.2,0-0.3-0.1-0.5-0.1c-0.6-0.1-1.3-0.3-1.9-0.4
		c-0.3,0-0.5-0.1-0.8-0.1c-0.6-0.1-1.2-0.2-1.7-0.3c-0.4,0-0.7-0.1-1.1-0.1c-0.5-0.1-1-0.1-1.5-0.2c-0.5,0-1-0.1-1.5-0.1
		c-0.4,0-0.8-0.1-1.2-0.1c-0.9,0-1.8-0.1-2.7-0.1c-9.1,0-18.2,2.2-26.2,6.3c-3.7,1.9-5.1,6.4-3.2,10.1S395,286.8,398.7,284.9z
		 M418,388.8c-23.3,0-42.3-19-42.3-42.3v-8.9c5.4,1.4,10.9,2.1,16.5,2.1c16,0,31.3-5.7,43.4-16c6.7,7.1,15.2,12.2,24.8,14.5v8.3
		C460.3,369.9,441.3,388.8,418,388.8z"/>
	<path class="st0" d="M184.1,374.2l11.5,19.8c1.7,3,5.2,4.4,8.5,3.5l18.2-5c3.2,2.3,6.6,4.3,10.2,5.9l4.8,18.3
		c0.9,3.3,3.8,5.6,7.3,5.6h22.9c3.4,0,6.4-2.3,7.3-5.6l4.8-18.3c3.6-1.6,7-3.6,10.2-5.9l18.2,5c3.3,0.9,6.8-0.5,8.5-3.5l11.5-19.8
		c1.7-3,1.2-6.7-1.2-9.1l-13.5-13.3c0.2-2,0.3-4,0.3-5.9s-0.1-3.9-0.3-5.9l13.5-13.3c2.4-2.4,2.9-6.1,1.2-9.1l-11.5-19.8
		c-1.7-3-5.2-4.4-8.5-3.5l-18.2,5c-3.2-2.3-6.6-4.3-10.2-5.9l-4.8-18.3c-0.9-3.3-3.8-5.6-7.3-5.6h-22.9c-3.4,0-6.4,2.3-7.3,5.6
		l-4.8,18.3c-3.6,1.6-7,3.6-10.2,5.9l-18.2-5c-3.3-0.9-6.8,0.5-8.5,3.5l-11.5,19.8c-1.7,3-1.2,6.7,1.2,9.1l13.5,13.3
		c-0.2,2-0.3,4-0.3,5.9s0.1,3.9,0.3,5.9l-13.5,13.3C182.9,367.5,182.4,371.2,184.1,374.2z M214.2,353.2c-0.4-2.5-0.6-4.9-0.6-7.3
		c0-2.4,0.2-4.9,0.6-7.3c0.4-2.4-0.4-4.9-2.1-6.6l-12-11.9l5.6-9.8l16.3,4.5c2.4,0.7,4.9,0.1,6.8-1.5c3.8-3.2,8.1-5.7,12.7-7.3
		c2.3-0.8,4.1-2.8,4.7-5.2l4.2-16.3h11.3l4.2,16.3c0.6,2.4,2.4,4.3,4.7,5.2c4.6,1.7,8.9,4.2,12.7,7.3c1.9,1.6,4.4,2.1,6.8,1.5
		l16.3-4.5l5.6,9.8L300,332c-1.8,1.7-2.5,4.2-2.1,6.6c0.4,2.5,0.6,4.9,0.6,7.3c0,2.4-0.2,4.9-0.6,7.3c-0.4,2.4,0.4,4.9,2.1,6.6
		l12,11.9l-5.6,9.8l-16.3-4.5c-2.4-0.7-4.9-0.1-6.8,1.5c-3.8,3.2-8.1,5.7-12.7,7.3c-2.3,0.8-4.1,2.8-4.7,5.2l-4.2,16.3h-11.3
		l-4.2-16.3c-0.6-2.4-2.4-4.3-4.7-5.2c-4.6-1.7-8.9-4.2-12.7-7.3c-1.9-1.6-4.4-2.1-6.8-1.5l-16.3,4.5l-5.6-9.8l12-11.9
		C213.8,358.1,214.6,355.7,214.2,353.2z"/>
	<path class="st0" d="M256,372.3c14.6,0,26.4-11.9,26.4-26.4c0-4.1-3.4-7.5-7.5-7.5s-7.5,3.4-7.5,7.5c0,6.3-5.1,11.4-11.4,11.4
		s-11.4-5.1-11.4-11.4s5.1-11.4,11.4-11.4c4.1,0,7.5-3.4,7.5-7.5s-3.4-7.5-7.5-7.5c-14.6,0-26.4,11.9-26.4,26.4
		C229.6,360.5,241.4,372.3,256,372.3z"/>
</g>
</svg>
